<svg width="395" height="250" viewBox="0 0 395 250" fill="none" xmlns="http://www.w3.org/2000/svg">
<mask id="mask0_5_243" style="mask-type:alpha" maskUnits="userSpaceOnUse" x="0" y="0" width="395" height="250">
<path d="M1.29932 1.25H393.701V248.75H1.29932V1.25Z" fill="#F8F7F9" stroke="#B1A6F1" stroke-width="2"/>
</mask>
<g mask="url(#mask0_5_243)">
<path d="M31.3054 740.033L227.387 642.819C233.607 639.588 283.225 615.205 431.938 543.526C580.65 471.848 573.407 368.658 551.197 326.021C538.703 300.781 512.107 247.423 505.674 235.905C499.241 224.389 510.647 213.201 517.154 209.046C584.188 169.581 651.651 113.642 632.264 70.3139C555.188 -101.939 509.764 -205.021 471.999 -259.697C434.235 -314.375 391.171 -296.649 378.969 -292.631C369.208 -289.419 294.709 -248.087 258.68 -227.824L244.608 -253.017C238.173 -264.535 225.37 -261.597 219.771 -258.69C5.74675 -149.06 -429.767 74.0787 -459.623 89.5883C-489.48 105.098 -487.659 122.725 -483.015 129.6C-425.336 234.296 -288.696 480.926 -203.571 629.873C-118.446 778.819 -11.518 765.374 31.3054 740.033Z" fill="#DBDAE0"/>
<path d="M260.456 -365.911C391.572 -426.117 478.463 -339.924 503.238 -294.312C519.754 -340.454 620.5 -399.985 708.034 -373.866C894.661 -318.179 853.773 -144.581 836.856 -108.157C788.821 -4.73672 561.043 306.054 524.708 329.389C488.375 352.725 273.67 87.5461 224.124 -4.73671C174.576 -97.0195 83.7392 -284.766 260.456 -365.911Z" fill="#C3C1CB"/>
<path d="M-175.941 362.818C-149.15 431.22 -54.6561 448.321 -10.7578 448.321L-10.826 502.731C-10.8617 531.233 59.0462 507.914 81.9497 461.276C158.526 478.117 502.58 450.911 528.302 300.634C539.838 233.234 513.693 162.016 417.006 107.605C320.319 53.1941 115.185 64.2156 -10.3488 121.855C-182.458 200.881 -209.429 277.315 -175.941 362.818Z" fill="#100A30"/>
</g>
<path d="M44.0455 196H46.2273C45.5795 192.625 42.75 190.307 39.0682 190.307C34.5938 190.307 31.4318 193.75 31.4318 199.273C31.4318 204.795 34.5682 208.239 39.2045 208.239C43.3636 208.239 46.3295 205.469 46.3295 201.148V199.273H39.6818V201.148H44.2841C44.2244 204.284 42.1619 206.261 39.2045 206.261C35.9659 206.261 33.4773 203.807 33.4773 199.273C33.4773 194.739 35.9659 192.284 39.0682 192.284C41.5909 192.284 43.304 193.707 44.0455 196ZM49.6768 208H51.6882V199.716C51.6882 197.943 53.0859 196.648 54.995 196.648C55.532 196.648 56.0859 196.75 56.2223 196.784V194.739C55.9922 194.722 55.4638 194.705 55.1655 194.705C53.5973 194.705 52.2337 195.591 51.7564 196.886H51.62V194.909H49.6768V208ZM62.4588 208.307C64.7429 208.307 65.9361 207.08 66.3452 206.227H66.4474V208H68.4588V199.375C68.4588 195.216 65.2884 194.739 63.6179 194.739C61.6406 194.739 59.3906 195.42 58.3679 197.807L60.277 198.489C60.7202 197.534 61.7685 196.511 63.6861 196.511C65.5355 196.511 66.4474 197.491 66.4474 199.17V199.239C66.4474 200.21 65.4588 200.125 63.0724 200.432C60.6435 200.747 57.9929 201.284 57.9929 204.284C57.9929 206.841 59.9702 208.307 62.4588 208.307ZM62.7656 206.5C61.1634 206.5 60.0043 205.784 60.0043 204.386C60.0043 202.852 61.402 202.375 62.9702 202.17C63.8224 202.068 66.1065 201.83 66.4474 201.42V203.261C66.4474 204.898 65.152 206.5 62.7656 206.5ZM77.8232 194.909H75.0277V191.773H73.0163V194.909H71.0391V196.614H73.0163V204.795C73.0163 207.08 74.8572 208.17 76.5618 208.17C77.3118 208.17 77.7891 208.034 78.0618 207.932L77.6527 206.125C77.4822 206.159 77.2095 206.227 76.7663 206.227C75.88 206.227 75.0277 205.955 75.0277 204.25V196.614H77.8232V194.909ZM89.0987 202.648C89.0987 205.102 87.2237 206.227 85.7237 206.227C84.0533 206.227 82.8601 205 82.8601 203.091V194.909H80.8487V203.227C80.8487 206.568 82.6214 208.17 85.076 208.17C87.0533 208.17 88.3487 207.114 88.9624 205.784H89.0987V208H91.1101V194.909H89.0987V202.648ZM94.794 208H96.8054V194.909H94.794V208ZM95.8168 192.727C96.6009 192.727 97.2486 192.114 97.2486 191.364C97.2486 190.614 96.6009 190 95.8168 190C95.0327 190 94.3849 190.614 94.3849 191.364C94.3849 192.114 95.0327 192.727 95.8168 192.727ZM106.183 194.909H103.387V191.773H101.376V194.909H99.3984V196.614H101.376V204.795C101.376 207.08 103.217 208.17 104.921 208.17C105.671 208.17 106.148 208.034 106.421 207.932L106.012 206.125C105.842 206.159 105.569 206.227 105.126 206.227C104.239 206.227 103.387 205.955 103.387 204.25V196.614H106.183V194.909Z" fill="white"/>
<path d="M30 173.827H37.5377V173.007L35.6694 172.445V167.76L36.3137 167.933C37.1297 168.17 37.9243 168.278 38.6759 168.278C41.5536 168.278 43.7011 166.572 43.7011 163.614C43.7011 160.634 41.3174 158.972 37.3445 158.972H30V159.792L31.761 160.354V172.445L30 173.007V173.827ZM35.6694 160.332H37.0224C39.1484 160.332 39.7068 160.893 39.7068 163.614C39.7068 166.054 39.3632 166.831 37.5163 166.831C37.3015 166.831 37.0438 166.831 36.7861 166.81L35.6694 166.723V160.332Z" fill="white"/>
<path d="M46.5094 174C47.9912 174 49.2368 172.899 49.8596 171.819C49.8596 173.179 50.74 173.957 52.1574 173.957C53.2097 173.957 53.8968 173.568 54.4553 173.244V172.381C53.2741 172.273 53.0808 172.186 53.0808 171.538V167.911C53.0808 164.132 51.5131 163.009 48.6355 163.009C46.7242 163.009 44.1257 163.808 44.1257 165.773C44.1257 166.745 44.7485 167.436 45.6719 167.436C46.5094 167.436 47.1322 166.853 47.1322 166.097C47.1322 165.428 46.7886 164.802 45.9511 164.629V164.586C46.2517 164.499 46.7671 164.413 47.4758 164.413C49.065 164.413 49.8596 164.78 49.8596 166.313V167.911L48.0341 168.235C45.1136 168.731 43.8036 169.638 43.8036 171.517C43.8036 173.028 44.9633 174 46.5094 174ZM48.0556 172.1C47.4114 172.1 47.0249 171.798 47.0249 170.955C47.0249 170.027 47.3684 169.573 48.4851 169.163L49.8596 168.667V171.085C49.3656 171.733 48.7643 172.1 48.0556 172.1Z" fill="white"/>
<path d="M61.5391 173.827H67.1012V172.64H66.1778L62.57 167.047L65.1684 164.543H66.5429V163.355H61.5177V164.543H62.8921L59.3272 168.947V158H58.5756L54.4524 159.619V160.094L56.106 161.023V172.64H54.7101V173.827H60.2721V172.64H59.3272V170.178L60.4439 169.099L62.5485 172.64H61.5391V173.827Z" fill="white"/>
<path d="M74.3362 173.827H79.8982V172.64H78.9748L75.367 167.047L77.9654 164.543H79.3399V163.355H74.3147V164.543H75.6891L72.1242 168.947V158H71.3726L67.2494 159.619V160.094L68.903 161.023V172.64H67.5071V173.827H73.0691V172.64H72.1242V170.178L73.2409 169.099L75.3455 172.64H74.3362V173.827Z" fill="white"/>
<path d="M85.2804 174C88.5876 174 90.9284 171.279 90.9284 168.494C90.9284 165.708 88.5876 163.009 85.2804 163.009C81.9733 163.009 79.6324 165.708 79.6324 168.494C79.6324 171.279 81.9733 174 85.2804 174ZM85.2804 172.791C83.9919 172.791 83.2188 172.078 83.2188 168.494C83.2188 164.888 84.0134 164.219 85.2804 164.219C86.5475 164.219 87.342 164.866 87.342 168.494C87.342 172.078 86.5689 172.791 85.2804 172.791Z" fill="white"/>
</svg>
