<svg width="395" height="250" viewBox="0 0 395 250" fill="none" xmlns="http://www.w3.org/2000/svg">
<mask id="mask0_5_180" style="mask-type:alpha" maskUnits="userSpaceOnUse" x="0" y="0" width="395" height="250">
<path d="M1.29932 1.25H393.701V248.75H1.29932V1.25Z" fill="#F8F7F9" stroke="#B1A6F1" stroke-width="2"/>
</mask>
<g mask="url(#mask0_5_180)">
<path d="M31.3054 740.033L227.387 642.819C233.607 639.588 283.225 615.205 431.938 543.526C580.65 471.848 573.407 368.658 551.197 326.021C538.703 300.781 512.107 247.423 505.674 235.905C499.241 224.389 510.647 213.201 517.154 209.046C584.188 169.581 651.651 113.642 632.264 70.3139C555.188 -101.939 509.764 -205.021 471.999 -259.697C434.235 -314.375 391.171 -296.649 378.969 -292.631C369.208 -289.419 294.709 -248.087 258.68 -227.824L244.608 -253.017C238.173 -264.535 225.37 -261.597 219.771 -258.69C5.74673 -149.06 -429.767 74.0786 -459.623 89.5883C-489.48 105.098 -487.659 122.725 -483.015 129.6C-425.336 234.296 -288.696 480.926 -203.571 629.873C-118.446 778.819 -11.518 765.374 31.3054 740.033Z" fill="#8CE3C3"/>
<path d="M260.456 -365.911C391.572 -426.117 478.463 -339.924 503.238 -294.312C519.754 -340.454 620.5 -399.985 708.034 -373.866C894.661 -318.179 853.773 -144.581 836.856 -108.157C788.822 -4.73672 561.043 306.054 524.708 329.389C488.375 352.725 273.67 87.5461 224.124 -4.73669C174.576 -97.0196 83.7393 -284.766 260.456 -365.911Z" fill="#19C787"/>
<path d="M-175.941 362.818C-149.15 431.22 -54.6561 448.321 -10.7578 448.321L-10.826 502.731C-10.8617 531.233 59.0462 507.914 81.9497 461.276C158.526 478.117 502.58 450.911 528.302 300.634C539.838 233.234 513.693 162.016 417.006 107.605C320.319 53.1941 115.185 64.2156 -10.3488 121.855C-182.458 200.881 -209.429 277.315 -175.941 362.818Z" fill="#100A30"/>
</g>
<path d="M30 173.827H37.5377V173.007L35.6694 172.445V167.76L36.3137 167.933C37.1297 168.17 37.9243 168.278 38.6759 168.278C41.5536 168.278 43.7011 166.572 43.7011 163.614C43.7011 160.634 41.3174 158.972 37.3445 158.972H30V159.792L31.761 160.354V172.445L30 173.007V173.827ZM35.6694 160.332H37.0224C39.1484 160.332 39.7068 160.893 39.7068 163.614C39.7068 166.054 39.3632 166.831 37.5163 166.831C37.3015 166.831 37.0438 166.831 36.7861 166.81L35.6694 166.723V160.332Z" fill="white"/>
<path d="M46.5095 174C47.9914 174 49.2369 172.899 49.8597 171.819C49.8597 173.179 50.7401 173.957 52.1575 173.957C53.2098 173.957 53.897 173.568 54.4554 173.244V172.381C53.2742 172.273 53.081 172.186 53.081 171.538V167.911C53.081 164.132 51.5133 163.009 48.6356 163.009C46.7243 163.009 44.1258 163.808 44.1258 165.773C44.1258 166.745 44.7486 167.436 45.672 167.436C46.5095 167.436 47.1323 166.853 47.1323 166.097C47.1323 165.428 46.7887 164.802 45.9512 164.629V164.586C46.2519 164.499 46.7673 164.413 47.4759 164.413C49.0651 164.413 49.8597 164.78 49.8597 166.313V167.911L48.0343 168.235C45.1137 168.731 43.8037 169.638 43.8037 171.517C43.8037 173.028 44.9634 174 46.5095 174ZM48.0557 172.1C47.4115 172.1 47.025 171.798 47.025 170.955C47.025 170.027 47.3686 169.573 48.4853 169.163L49.8597 168.667V171.085C49.3657 171.733 48.7645 172.1 48.0557 172.1Z" fill="white"/>
<path d="M61.5391 173.827H67.1012V172.64H66.1778L62.57 167.047L65.1684 164.543H66.5429V163.355H61.5177V164.543H62.8921L59.3272 168.947V158H58.5756L54.4524 159.619V160.094L56.106 161.023V172.64H54.7101V173.827H60.2721V172.64H59.3272V170.178L60.4439 169.099L62.5485 172.64H61.5391V173.827Z" fill="white"/>
<path d="M74.3361 173.827H79.8981V172.64H78.9747L75.3668 167.047L77.9653 164.543H79.3397V163.355H74.3146V164.543H75.6889L72.1241 168.947V158H71.3725L67.2493 159.619V160.094L68.9028 161.023V172.64H67.507V173.827H73.069V172.64H72.1241V170.178L73.2408 169.099L75.3454 172.64H74.3361V173.827Z" fill="white"/>
<path d="M85.2805 174C88.5877 174 90.9285 171.279 90.9285 168.494C90.9285 165.708 88.5877 163.009 85.2805 163.009C81.9734 163.009 79.6326 165.708 79.6326 168.494C79.6326 171.279 81.9734 174 85.2805 174ZM85.2805 172.791C83.992 172.791 83.2189 172.078 83.2189 168.494C83.2189 164.888 84.0135 164.219 85.2805 164.219C86.5476 164.219 87.3421 164.866 87.3421 168.494C87.3421 172.078 86.5691 172.791 85.2805 172.791Z" fill="white"/>
<path d="M32.1136 208H38.4205C42.5455 208 44.25 205.989 44.25 203.364C44.25 200.602 42.3409 199.102 40.7386 199V198.83C42.2386 198.42 43.5682 197.432 43.5682 195.182C43.5682 192.625 41.8636 190.545 38.2159 190.545H32.1136V208ZM34.2273 206.125V200.057H38.5227C40.8068 200.057 42.2386 201.591 42.2386 203.364C42.2386 204.898 41.1818 206.125 38.4205 206.125H34.2273ZM34.2273 198.216V192.42H38.2159C40.5341 192.42 41.5568 193.648 41.5568 195.182C41.5568 197.023 40.0568 198.216 38.1477 198.216H34.2273ZM51.3026 208.307C53.5866 208.307 54.7798 207.08 55.1889 206.227H55.2912V208H57.3026V199.375C57.3026 195.216 54.1321 194.739 52.4616 194.739C50.4844 194.739 48.2344 195.42 47.2116 197.807L49.1207 198.489C49.5639 197.534 50.6122 196.511 52.5298 196.511C54.3793 196.511 55.2912 197.491 55.2912 199.17V199.239C55.2912 200.21 54.3026 200.125 51.9162 200.432C49.4872 200.747 46.8366 201.284 46.8366 204.284C46.8366 206.841 48.8139 208.307 51.3026 208.307ZM51.6094 206.5C50.0071 206.5 48.848 205.784 48.848 204.386C48.848 202.852 50.2457 202.375 51.8139 202.17C52.6662 202.068 54.9503 201.83 55.2912 201.42V203.261C55.2912 204.898 53.9957 206.5 51.6094 206.5ZM70.2464 197.841C69.6158 195.983 68.201 194.739 65.6101 194.739C62.8487 194.739 60.8033 196.307 60.8033 198.523C60.8033 200.33 61.8771 201.54 64.2805 202.102L66.4624 202.614C67.7834 202.92 68.4055 203.551 68.4055 204.455C68.4055 205.58 67.2124 206.5 65.3374 206.5C63.6925 206.5 62.6612 205.793 62.3033 204.386L60.3942 204.864C60.8629 207.088 62.6953 208.273 65.3714 208.273C68.4141 208.273 70.4851 206.611 70.4851 204.352C70.4851 202.528 69.343 201.378 67.0078 200.807L65.0646 200.33C63.5135 199.946 62.8146 199.426 62.8146 198.42C62.8146 197.295 64.0078 196.477 65.6101 196.477C67.3658 196.477 68.0902 197.449 68.4396 198.352L70.2464 197.841ZM73.5128 208H75.5241V194.909H73.5128V208ZM74.5355 192.727C75.3196 192.727 75.9673 192.114 75.9673 191.364C75.9673 190.614 75.3196 190 74.5355 190C73.7514 190 73.1037 190.614 73.1037 191.364C73.1037 192.114 73.7514 192.727 74.5355 192.727ZM90.1513 212.909V194.909H88.2081V196.989H87.9695C87.5263 196.307 86.7422 194.739 84.1854 194.739C80.8786 194.739 78.5945 197.364 78.5945 201.489C78.5945 205.648 80.8786 208.273 84.1513 208.273C86.674 208.273 87.5263 206.705 87.9695 205.989H88.1399V212.909H90.1513ZM88.174 201.455C88.174 204.42 86.8445 206.466 84.424 206.466C81.9013 206.466 80.6058 204.25 80.6058 201.455C80.6058 198.693 81.8672 196.545 84.424 196.545C86.8786 196.545 88.174 198.523 88.174 201.455ZM102.083 202.648C102.083 205.102 100.208 206.227 98.7081 206.227C97.0376 206.227 95.8445 205 95.8445 203.091V194.909H93.8331V203.227C93.8331 206.568 95.6058 208.17 98.0604 208.17C100.038 208.17 101.333 207.114 101.947 205.784H102.083V208H104.094V194.909H102.083V202.648ZM113.267 208.273C115.926 208.273 117.869 206.943 118.483 204.966L116.54 204.42C116.028 205.784 114.844 206.466 113.267 206.466C110.906 206.466 109.278 204.94 109.185 202.136H118.688V201.284C118.688 196.409 115.79 194.739 113.062 194.739C109.517 194.739 107.165 197.534 107.165 201.557C107.165 205.58 109.483 208.273 113.267 208.273ZM109.185 200.398C109.321 198.361 110.761 196.545 113.062 196.545C115.244 196.545 116.642 198.182 116.642 200.398H109.185Z" fill="#19C787"/>
<path d="M324.277 203.58H323.126L319.61 216.641H320.761L324.277 203.58ZM325.767 215H327.024V209.886C327.024 208.688 327.897 207.841 328.878 207.841C329.831 207.841 330.497 208.464 330.497 209.396V215H331.775V209.673C331.775 208.619 332.436 207.841 333.586 207.841C334.481 207.841 335.248 208.315 335.248 209.524V215H336.505V209.524C336.505 207.601 335.472 206.712 334.013 206.712C332.841 206.712 331.983 207.25 331.562 208.097H331.477C331.072 207.223 330.358 206.712 329.282 206.712C328.217 206.712 327.429 207.223 327.088 208.097H326.981V206.818H325.767V215ZM342.128 215.17C344.344 215.17 345.835 213.487 345.835 210.952C345.835 208.395 344.344 206.712 342.128 206.712C339.912 206.712 338.42 208.395 338.42 210.952C338.42 213.487 339.912 215.17 342.128 215.17ZM342.128 214.041C340.445 214.041 339.677 212.592 339.677 210.952C339.677 209.311 340.445 207.841 342.128 207.841C343.811 207.841 344.578 209.311 344.578 210.952C344.578 212.592 343.811 214.041 342.128 214.041ZM347.754 215H349.011V206.818H347.754V215ZM348.393 205.455C348.883 205.455 349.288 205.071 349.288 204.602C349.288 204.134 348.883 203.75 348.393 203.75C347.903 203.75 347.498 204.134 347.498 204.602C347.498 205.071 347.903 205.455 348.393 205.455ZM357.109 208.651C356.715 207.489 355.831 206.712 354.211 206.712C352.486 206.712 351.207 207.692 351.207 209.077C351.207 210.206 351.878 210.962 353.38 211.314L354.744 211.634C355.57 211.825 355.959 212.219 355.959 212.784C355.959 213.487 355.213 214.062 354.041 214.062C353.013 214.062 352.368 213.62 352.145 212.741L350.951 213.04C351.244 214.43 352.39 215.17 354.062 215.17C355.964 215.17 357.258 214.132 357.258 212.72C357.258 211.58 356.544 210.861 355.085 210.504L353.87 210.206C352.901 209.966 352.464 209.641 352.464 209.013C352.464 208.31 353.21 207.798 354.211 207.798C355.309 207.798 355.761 208.406 355.98 208.97L357.109 208.651Z" fill="white"/>
<path d="M264.523 213.477C271.17 213.477 276.045 208.568 276.045 201.886C276.045 195.119 271.341 190.159 264.932 190.159C262.58 190.159 260.295 190.994 258.864 192.136H258.659L259.886 181.841H274.477V178.091H256.341L254.227 195.273L258.182 195.75C259.631 194.71 262.102 193.96 264.25 193.977C268.699 194.011 271.955 197.386 271.955 201.955C271.955 206.438 268.818 209.727 264.523 209.727C260.943 209.727 258.097 207.426 257.773 204.273H253.682C253.938 209.591 258.523 213.477 264.523 213.477ZM304.226 190.432H289.294C290.658 184.653 294.391 181.568 298.976 181.568C301.908 181.568 304.43 182.795 306.612 184.773L308.249 181.227C305.794 178.909 302.589 177.614 298.976 177.614C291.97 177.614 286.686 182.42 285.118 190.432H281.658L280.43 193.841H284.709C284.675 194.403 284.658 194.966 284.658 195.545C284.658 196.125 284.675 196.688 284.709 197.25H281.658L280.43 200.659H285.118C286.686 208.67 291.97 213.477 298.976 213.477C302.453 213.477 305.794 212.318 308.18 210.068L306.476 206.523C304.499 208.227 301.976 209.523 298.976 209.523C294.391 209.523 290.658 206.438 289.294 200.659H299.726L301.294 197.25H288.8C288.766 196.705 288.749 196.125 288.749 195.545C288.749 194.966 288.766 194.386 288.8 193.841H302.658L304.226 190.432Z" fill="white"/>
</svg>
