<svg width="395" height="250" viewBox="0 0 395 250" fill="none" xmlns="http://www.w3.org/2000/svg">
<mask id="mask0_5_202" style="mask-type:alpha" maskUnits="userSpaceOnUse" x="0" y="0" width="395" height="250">
<path d="M1.29932 1.25H393.701V248.75H1.29932V1.25Z" fill="#F8F7F9" stroke="#B1A6F1" stroke-width="2"/>
</mask>
<g mask="url(#mask0_5_202)">
<path d="M31.3055 740.033L227.388 642.819C233.607 639.588 283.225 615.205 431.938 543.526C580.65 471.848 573.408 368.658 551.197 326.021C538.703 300.781 512.107 247.423 505.674 235.905C499.241 224.389 510.647 213.201 517.154 209.046C584.188 169.581 651.651 113.642 632.264 70.3139C555.188 -101.939 509.764 -205.021 471.999 -259.697C434.235 -314.375 391.171 -296.649 378.969 -292.631C369.208 -289.419 294.709 -248.087 258.68 -227.824L244.608 -253.017C238.173 -264.535 225.37 -261.597 219.771 -258.69C5.74687 -149.06 -429.766 74.0787 -459.623 89.5883C-489.48 105.098 -487.659 122.725 -483.015 129.6C-425.336 234.296 -288.696 480.926 -203.57 629.873C-118.446 778.819 -11.5178 765.374 31.3055 740.033Z" fill="#FDDC9A"/>
<path d="M260.456 -365.911C391.572 -426.117 478.463 -339.924 503.238 -294.312C519.754 -340.454 620.5 -399.985 708.034 -373.866C894.661 -318.179 853.773 -144.581 836.856 -108.157C788.822 -4.73672 561.043 306.054 524.708 329.389C488.375 352.725 273.67 87.5461 224.124 -4.73671C174.576 -97.0195 83.7393 -284.766 260.456 -365.911Z" fill="#FCB935"/>
<path d="M-175.941 362.817C-149.15 431.22 -54.6559 448.321 -10.7576 448.321L-10.8257 502.731C-10.8614 531.232 59.0464 507.914 81.9499 461.276C158.526 478.117 502.58 450.911 528.302 300.634C539.838 233.234 513.694 162.016 417.006 107.605C320.319 53.1941 115.185 64.2156 -10.3485 121.855C-182.457 200.881 -209.429 277.315 -175.941 362.817Z" fill="#100A30"/>
</g>
<path d="M32.1136 208H34.2273V201.625H38.0455C42.1108 201.625 43.9432 199.153 43.9432 196.068C43.9432 192.983 42.1108 190.545 38.0114 190.545H32.1136V208ZM34.2273 199.75V192.42H37.9432C40.7812 192.42 41.8636 193.972 41.8636 196.068C41.8636 198.165 40.7812 199.75 37.9773 199.75H34.2273ZM47.0753 208H49.0866V199.716C49.0866 197.943 50.4844 196.648 52.3935 196.648C52.9304 196.648 53.4844 196.75 53.6207 196.784V194.739C53.3906 194.722 52.8622 194.705 52.5639 194.705C50.9957 194.705 49.6321 195.591 49.1548 196.886H49.0185V194.909H47.0753V208ZM60.9247 208.273C64.4702 208.273 66.8565 205.58 66.8565 201.523C66.8565 197.432 64.4702 194.739 60.9247 194.739C57.3793 194.739 54.9929 197.432 54.9929 201.523C54.9929 205.58 57.3793 208.273 60.9247 208.273ZM60.9247 206.466C58.2315 206.466 57.0043 204.148 57.0043 201.523C57.0043 198.898 58.2315 196.545 60.9247 196.545C63.6179 196.545 64.8452 198.898 64.8452 201.523C64.8452 204.148 63.6179 206.466 60.9247 206.466Z" fill="#FF9F1C"/>
<path d="M30 173.827H37.5377V173.007L35.6694 172.445V167.76L36.3137 167.933C37.1297 168.17 37.9243 168.278 38.6759 168.278C41.5536 168.278 43.7011 166.572 43.7011 163.614C43.7011 160.634 41.3174 158.972 37.3445 158.972H30V159.792L31.761 160.354V172.445L30 173.007V173.827ZM35.6694 160.332H37.0224C39.1484 160.332 39.7068 160.893 39.7068 163.614C39.7068 166.054 39.3632 166.831 37.5163 166.831C37.3015 166.831 37.0438 166.831 36.7861 166.81L35.6694 166.723V160.332Z" fill="white"/>
<path d="M46.5095 174C47.9914 174 49.2369 172.899 49.8597 171.819C49.8597 173.179 50.7401 173.957 52.1575 173.957C53.2098 173.957 53.897 173.568 54.4554 173.244V172.381C53.2742 172.273 53.081 172.186 53.081 171.538V167.911C53.081 164.132 51.5133 163.009 48.6356 163.009C46.7243 163.009 44.1258 163.808 44.1258 165.773C44.1258 166.745 44.7486 167.436 45.672 167.436C46.5095 167.436 47.1323 166.853 47.1323 166.097C47.1323 165.428 46.7887 164.802 45.9512 164.629V164.586C46.2519 164.499 46.7673 164.413 47.4759 164.413C49.0651 164.413 49.8597 164.78 49.8597 166.313V167.911L48.0343 168.235C45.1137 168.731 43.8037 169.638 43.8037 171.517C43.8037 173.028 44.9634 174 46.5095 174ZM48.0557 172.1C47.4115 172.1 47.025 171.798 47.025 170.955C47.025 170.027 47.3686 169.573 48.4853 169.163L49.8597 168.667V171.085C49.3657 171.733 48.7645 172.1 48.0557 172.1Z" fill="white"/>
<path d="M61.5391 173.827H67.1012V172.64H66.1778L62.57 167.047L65.1684 164.543H66.5429V163.355H61.5177V164.543H62.8921L59.3272 168.947V158H58.5756L54.4524 159.619V160.094L56.106 161.023V172.64H54.7101V173.827H60.2721V172.64H59.3272V170.178L60.4439 169.099L62.5485 172.64H61.5391V173.827Z" fill="white"/>
<path d="M74.3361 173.827H79.8981V172.64H78.9747L75.3668 167.047L77.9653 164.543H79.3397V163.355H74.3146V164.543H75.6889L72.1241 168.947V158H71.3725L67.2493 159.619V160.094L68.9028 161.023V172.64H67.507V173.827H73.069V172.64H72.1241V170.178L73.2408 169.099L75.3454 172.64H74.3361V173.827Z" fill="white"/>
<path d="M85.2805 174C88.5877 174 90.9285 171.279 90.9285 168.494C90.9285 165.708 88.5877 163.009 85.2805 163.009C81.9734 163.009 79.6326 165.708 79.6326 168.494C79.6326 171.279 81.9734 174 85.2805 174ZM85.2805 172.791C83.992 172.791 83.2189 172.078 83.2189 168.494C83.2189 164.888 84.0135 164.219 85.2805 164.219C86.5476 164.219 87.3421 164.866 87.3421 168.494C87.3421 172.078 86.5691 172.791 85.2805 172.791Z" fill="white"/>
<path d="M325.277 203.58H324.126L320.61 216.641H321.761L325.277 203.58ZM326.767 215H328.024V209.886C328.024 208.688 328.897 207.841 329.878 207.841C330.831 207.841 331.497 208.464 331.497 209.396V215H332.775V209.673C332.775 208.619 333.436 207.841 334.586 207.841C335.481 207.841 336.248 208.315 336.248 209.524V215H337.505V209.524C337.505 207.601 336.472 206.712 335.013 206.712C333.841 206.712 332.983 207.25 332.562 208.097H332.477C332.072 207.223 331.358 206.712 330.282 206.712C329.217 206.712 328.429 207.223 328.088 208.097H327.981V206.818H326.767V215ZM343.128 215.17C345.344 215.17 346.835 213.487 346.835 210.952C346.835 208.395 345.344 206.712 343.128 206.712C340.912 206.712 339.42 208.395 339.42 210.952C339.42 213.487 340.912 215.17 343.128 215.17ZM343.128 214.041C341.445 214.041 340.677 212.592 340.677 210.952C340.677 209.311 341.445 207.841 343.128 207.841C344.811 207.841 345.578 209.311 345.578 210.952C345.578 212.592 344.811 214.041 343.128 214.041ZM348.754 215H350.011V206.818H348.754V215ZM349.393 205.455C349.883 205.455 350.288 205.071 350.288 204.602C350.288 204.134 349.883 203.75 349.393 203.75C348.903 203.75 348.498 204.134 348.498 204.602C348.498 205.071 348.903 205.455 349.393 205.455ZM358.109 208.651C357.715 207.489 356.831 206.712 355.211 206.712C353.486 206.712 352.207 207.692 352.207 209.077C352.207 210.206 352.878 210.962 354.38 211.314L355.744 211.634C356.57 211.825 356.959 212.219 356.959 212.784C356.959 213.487 356.213 214.062 355.041 214.062C354.013 214.062 353.368 213.62 353.145 212.741L351.951 213.04C352.244 214.43 353.39 215.17 355.062 215.17C356.964 215.17 358.258 214.132 358.258 212.72C358.258 211.58 357.544 210.861 356.085 210.504L354.87 210.206C353.901 209.966 353.464 209.641 353.464 209.013C353.464 208.31 354.21 207.798 355.211 207.798C356.309 207.798 356.761 208.406 356.98 208.97L358.109 208.651Z" fill="white"/>
<path d="M244.886 178.091H240.659L231.932 183.886V188.182L240.455 182.523H240.659V213H244.886V178.091ZM254.926 213H276.949V209.25H260.722V208.977L268.562 200.591C274.562 194.165 276.335 191.165 276.335 187.295C276.335 181.909 271.972 177.614 265.835 177.614C259.716 177.614 255.062 181.773 255.062 187.909H259.085C259.085 183.938 261.659 181.295 265.699 181.295C269.483 181.295 272.381 183.614 272.381 187.295C272.381 190.517 270.489 192.903 266.449 197.318L254.926 209.932V213ZM305.398 190.432H290.466C291.83 184.653 295.562 181.568 300.148 181.568C303.08 181.568 305.602 182.795 307.784 184.773L309.42 181.227C306.966 178.909 303.761 177.614 300.148 177.614C293.142 177.614 287.858 182.42 286.29 190.432H282.83L281.602 193.841H285.881C285.847 194.403 285.83 194.966 285.83 195.545C285.83 196.125 285.847 196.688 285.881 197.25H282.83L281.602 200.659H286.29C287.858 208.67 293.142 213.477 300.148 213.477C303.625 213.477 306.966 212.318 309.352 210.068L307.648 206.523C305.67 208.227 303.148 209.523 300.148 209.523C295.562 209.523 291.83 206.438 290.466 200.659H300.898L302.466 197.25H289.972C289.938 196.705 289.92 196.125 289.92 195.545C289.92 194.966 289.938 194.386 289.972 193.841H303.83L305.398 190.432Z" fill="white"/>
</svg>
